<?xml version="1.0" standalone="no"?>
<!DOCTYPE svg PUBLIC "-//W3C//DTD SVG 20010904//EN"
 "http://www.w3.org/TR/2001/REC-SVG-20010904/DTD/svg10.dtd">
<svg version="1.0" xmlns="http://www.w3.org/2000/svg"
 width="1280.000000pt" height="1280.000000pt" viewBox="0 0 1280.000000 1280.000000"
 preserveAspectRatio="xMidYMid meet">
<metadata>
Created by potrace 1.15, written by Peter Selinger 2001-2017
</metadata>
<g transform="translate(0.000000,1280.000000) scale(0.100000,-0.100000)"
fill="#000000" stroke="none">
<path d="M5900 12775 c-8 -2 -75 -9 -147 -15 l-133 -12 0 -27 c-3 -160 -25
-389 -43 -453 -12 -41 -15 -43 -62 -51 -28 -4 -112 -19 -189 -32 -132 -24
-139 -25 -152 -8 -27 36 -123 230 -164 333 -23 58 -45 108 -49 112 -3 4 -83
-13 -176 -37 -241 -64 -255 -68 -255 -80 0 -5 7 -53 16 -105 8 -52 17 -165 21
-250 l6 -155 -99 -34 c-55 -19 -137 -50 -184 -68 l-85 -34 -43 48 c-35 39
-203 282 -248 359 -11 18 -13 18 -70 -5 -32 -13 -124 -55 -203 -92 -117 -56
-142 -72 -138 -86 2 -10 21 -72 42 -138 43 -142 74 -276 75 -325 0 -33 -4 -37
-58 -65 -31 -16 -104 -58 -162 -93 -96 -58 -107 -62 -129 -50 -26 14 -225 207
-305 296 l-48 53 -66 -42 c-58 -37 -167 -113 -270 -189 l-32 -23 69 -131 c73
-138 141 -300 141 -333 0 -13 -23 -38 -62 -69 -35 -27 -100 -82 -146 -122
l-84 -73 -47 27 c-92 54 -178 112 -274 187 -54 43 -101 77 -106 77 -12 0 -209
-189 -265 -255 -35 -40 -47 -61 -40 -70 5 -7 49 -66 98 -130 88 -116 176 -257
176 -283 0 -7 -30 -48 -68 -90 -37 -42 -89 -105 -116 -139 -31 -40 -56 -63
-69 -63 -33 0 -195 68 -333 141 l-131 68 -60 -82 c-86 -116 -194 -279 -191
-286 2 -4 48 -48 103 -98 100 -90 184 -177 232 -239 l25 -34 -75 -127 c-41
-71 -83 -145 -93 -165 -16 -35 -21 -38 -58 -38 -52 0 -177 30 -338 80 -69 22
-129 40 -133 40 -7 0 -126 -247 -166 -344 -23 -57 -23 -59 -5 -70 156 -93 390
-262 398 -288 4 -10 -53 -195 -99 -326 -26 -74 -53 -78 -293 -40 -91 15 -185
29 -210 32 l-46 7 -13 -48 c-57 -202 -99 -379 -93 -384 4 -4 54 -26 112 -49
100 -40 295 -136 333 -164 17 -13 16 -20 -7 -147 -14 -74 -28 -158 -32 -187
-4 -34 -13 -56 -23 -62 -27 -14 -223 -38 -372 -46 l-136 -7 -12 -116 c-18
-171 -27 -322 -21 -326 3 -1 55 -13 115 -25 130 -26 293 -73 345 -100 l36 -18
0 -193 -1 -193 -60 -24 c-61 -25 -217 -67 -359 -97 l-79 -17 6 -118 c3 -64 11
-165 18 -222 l12 -105 146 -6 c152 -7 329 -30 360 -46 13 -8 21 -31 30 -98 7
-48 21 -131 32 -183 l20 -95 -28 -23 c-36 -29 -222 -120 -343 -167 -52 -20
-96 -38 -98 -39 -4 -5 26 -132 70 -289 40 -147 41 -148 67 -143 110 24 395 48
456 39 l41 -5 34 -97 c19 -53 48 -133 66 -178 l32 -83 -55 -50 c-50 -46 -232
-173 -327 -228 -33 -20 -37 -26 -31 -49 8 -32 165 -372 174 -378 4 -2 56 12
117 31 113 36 279 78 351 88 l41 6 43 -78 c23 -42 66 -117 96 -166 l54 -89
-25 -36 c-30 -45 -145 -164 -255 -264 l-84 -77 48 -72 c92 -141 200 -288 211
-288 6 0 61 27 122 60 96 52 260 124 328 144 17 5 40 -18 135 -130 62 -75 118
-142 124 -150 18 -26 -78 -184 -223 -364 l-60 -75 80 -87 c43 -48 115 -119
159 -159 l79 -71 55 43 c114 90 238 176 305 213 l69 37 104 -88 c56 -48 123
-104 147 -124 l45 -36 -24 -74 c-13 -41 -61 -148 -107 -239 -46 -90 -82 -165
-81 -165 1 -1 29 -22 62 -47 33 -25 114 -82 180 -127 l119 -82 80 88 c97 107
208 214 259 250 l38 26 37 -22 c20 -12 94 -54 164 -94 126 -71 128 -73 128
-107 -1 -70 -80 -371 -116 -442 l-14 -28 100 -50 c106 -53 298 -140 309 -140
4 0 18 19 31 43 47 82 179 273 227 326 l49 54 104 -40 c58 -22 140 -53 182
-68 l78 -28 0 -102 c0 -57 -7 -159 -16 -227 -25 -186 -25 -189 11 -200 117
-35 363 -98 380 -98 16 0 27 17 54 88 39 103 143 317 170 352 l19 24 119 -22
c65 -12 150 -27 190 -33 l72 -12 10 -46 c16 -71 29 -193 37 -339 6 -124 8
-133 28 -137 32 -6 209 -23 324 -31 95 -6 102 -5 102 12 0 38 69 312 100 397
l32 87 194 0 193 0 14 -27 c27 -52 67 -188 97 -326 16 -76 30 -140 30 -143 0
-6 111 0 295 17 170 15 151 -6 158 171 6 138 27 311 43 351 3 9 23 18 47 22
23 3 108 18 190 32 145 26 148 26 162 7 29 -39 114 -213 160 -326 30 -75 53
-118 62 -118 21 0 241 56 341 86 75 22 82 27 77 47 -12 55 -34 241 -40 337 -7
128 1 160 41 173 16 5 94 34 174 63 79 30 148 54 152 54 15 0 145 -172 222
-294 69 -109 82 -124 95 -113 9 7 98 53 199 102 158 78 182 93 178 110 -2 11
-21 71 -40 134 -40 126 -80 307 -72 326 2 7 40 32 83 56 43 23 113 64 156 91
43 26 84 48 91 48 22 0 139 -104 246 -218 57 -62 107 -112 111 -112 10 0 212
134 286 190 36 27 69 50 75 52 7 3 -21 68 -65 155 -66 129 -135 300 -125 308
2 1 59 49 127 106 186 156 164 143 203 123 59 -30 171 -104 266 -177 86 -65
94 -69 118 -58 15 6 87 69 160 139 74 70 141 128 149 130 8 2 15 5 15 8 0 2
-30 41 -66 86 -76 95 -171 233 -203 296 -26 50 -39 26 119 213 86 103 108 123
128 121 40 -5 168 -59 304 -128 120 -61 129 -64 150 -50 29 20 92 99 184 229
l76 108 -54 46 c-101 90 -230 218 -270 271 -48 62 -55 37 70 252 l79 135 44
-3 c61 -4 222 -44 353 -87 59 -20 109 -35 111 -33 8 9 80 160 130 273 51 116
55 131 40 140 -177 107 -405 274 -405 295 0 5 10 33 21 62 12 29 41 107 64
173 41 115 44 120 76 128 35 9 273 -6 378 -24 31 -5 68 -11 83 -14 27 -4 28
-2 53 78 31 104 85 317 85 338 0 11 -36 31 -117 64 -114 46 -288 131 -327 160
-17 13 -18 20 -9 72 6 32 21 117 33 190 16 91 28 134 38 138 39 15 213 36 349
41 l152 7 5 26 c16 80 42 421 32 421 -3 0 -61 12 -128 26 -126 26 -291 75
-340 100 l-28 15 0 193 0 194 70 27 c72 28 307 89 387 101 l45 7 -7 101 c-7
114 -24 290 -30 322 -5 20 -13 22 -142 28 -148 8 -336 32 -364 46 -11 7 -21
32 -28 77 -6 38 -21 121 -33 186 l-22 119 24 19 c14 10 79 45 145 78 105 52
158 75 277 120 l27 10 -35 133 c-34 134 -75 280 -80 286 -1 2 -15 -6 -31 -17
-40 -30 -117 -41 -289 -43 -199 -2 -188 -10 -267 205 -32 89 -61 172 -64 183
-8 33 11 58 87 119 64 51 287 199 313 208 13 4 -4 46 -101 250 -57 121 -68
138 -86 134 -12 -3 -73 -22 -136 -42 -135 -43 -271 -74 -320 -75 -33 0 -38 4
-70 63 -18 34 -60 106 -92 159 -32 53 -58 103 -58 111 0 21 178 213 273 296
l86 74 -23 36 c-71 111 -229 331 -236 328 -3 -1 -88 -44 -190 -94 -102 -51
-207 -98 -234 -105 l-49 -13 -36 45 c-20 24 -76 90 -124 147 l-88 102 15 35
c19 45 99 165 198 294 l79 104 -76 79 c-94 98 -230 229 -239 229 -3 0 -30 -20
-60 -44 -88 -72 -248 -183 -309 -215 l-58 -30 -121 102 c-67 56 -134 113 -150
127 l-29 25 25 71 c35 95 83 201 140 303 25 46 46 89 46 95 -1 6 -26 29 -57
51 -127 90 -297 205 -302 205 -4 0 -47 -46 -96 -102 -83 -93 -259 -258 -277
-258 -4 0 -47 24 -95 53 -48 29 -123 72 -166 96 l-78 43 6 46 c10 70 50 228
89 349 20 59 34 108 33 109 -20 19 -358 174 -380 174 -20 0 -47 -33 -140 -171
-43 -64 -102 -144 -133 -177 l-55 -61 -52 21 c-29 11 -109 41 -179 65 l-126
45 -7 44 c-7 49 -1 144 21 319 8 66 16 129 17 139 2 16 -10 23 -58 39 -76 23
-367 99 -369 95 -1 -2 -26 -61 -55 -133 -58 -141 -121 -268 -155 -310 l-21
-27 -130 26 c-72 13 -154 28 -182 32 -29 3 -57 12 -62 18 -18 21 -40 193 -47
356 l-7 157 -121 12 c-138 15 -261 9 -303 -13 -24 -12 -32 -25 -42 -73 -29
-129 -61 -244 -88 -314 l-28 -74 -165 -5 c-224 -7 -217 -8 -246 54 -31 68 -67
196 -94 334 l-23 112 -76 -1 c-42 -1 -83 -3 -91 -4z m504 -1592 c7 -23 46
-263 46 -282 0 -12 -32 -13 -197 -8 -294 10 -537 40 -741 93 -101 26 -232 74
-232 85 0 4 12 9 28 12 15 2 90 16 167 31 281 54 544 82 797 85 113 1 127 -1
132 -16z m506 -9 c204 -21 527 -75 600 -100 22 -8 -87 -51 -215 -84 -184 -49
-407 -80 -671 -96 l-111 -7 -7 59 c-4 33 -14 94 -22 138 -24 132 -37 120 134
112 81 -4 212 -13 292 -22z m-1652 -170 c2 -1 -41 -25 -95 -54 -230 -124 -480
-289 -694 -459 -63 -50 -120 -91 -127 -91 -23 0 -213 100 -207 110 9 14 265
169 410 248 151 81 326 163 510 238 l130 52 35 -21 c19 -11 36 -21 38 -23z
m2552 -9 c281 -82 707 -259 891 -370 l61 -37 -32 -33 c-18 -19 -52 -44 -76
-57 l-43 -22 -28 20 c-201 149 -481 318 -738 446 -110 55 -191 97 -180 94 11
-3 76 -22 145 -41z m-159 -30 c156 -68 386 -190 551 -292 170 -105 338 -220
338 -232 0 -10 -38 -26 -178 -77 l-93 -34 -110 100 c-192 174 -439 362 -637
483 l-84 51 49 22 c26 12 51 23 54 23 3 1 53 -19 110 -44z m-2238 -17 l71 -21
-34 -26 c-133 -101 -247 -197 -377 -320 -84 -78 -153 -146 -155 -151 -2 -5
-36 -43 -77 -85 l-75 -77 -65 17 c-113 27 -271 78 -271 86 0 23 347 275 546
397 110 67 351 201 362 202 2 0 36 -10 75 -22z m2011 -50 c223 -131 458 -306
689 -512 61 -55 75 -72 63 -78 -13 -8 -267 -66 -353 -82 -31 -5 -35 -1 -114
102 -119 153 -202 247 -372 418 l-149 151 78 21 c44 11 81 20 83 21 3 1 37
-18 75 -41z m-1658 -31 c2 -2 -27 -42 -64 -89 -120 -148 -262 -358 -353 -521
l-44 -78 -60 5 c-127 12 -395 63 -395 75 0 4 51 61 114 127 130 137 336 320
496 440 l107 81 98 -18 c54 -10 99 -20 101 -22z m1533 -174 c103 -104 239
-253 303 -333 103 -129 114 -146 96 -153 -31 -11 -415 -59 -450 -55 -30 3 -34
9 -102 163 -73 163 -189 391 -244 480 -17 27 -29 51 -27 53 5 5 170 29 209 31
24 1 56 -27 215 -186z m-1281 151 c61 -5 92 -11 89 -18 -41 -107 -140 -443
-190 -646 l-14 -55 -69 2 c-106 4 -448 35 -456 42 -19 17 267 443 424 632 48
58 52 61 87 55 20 -3 78 -8 129 -12z m-1458 -5 c-8 -5 -69 -39 -135 -76 -66
-36 -173 -99 -238 -141 -114 -71 -119 -73 -137 -57 -11 10 -17 22 -14 27 8 12
219 118 389 194 135 61 167 74 135 53z m1898 -14 c2 -2 10 -59 18 -127 8 -67
16 -141 19 -163 3 -22 12 -114 20 -205 8 -91 17 -178 19 -193 l3 -29 -278 4
c-152 2 -280 6 -284 9 -11 12 123 505 175 639 9 25 19 52 22 60 5 13 28 14
144 12 77 -2 140 -5 142 -7z m399 -80 c98 -164 303 -588 290 -601 -6 -7 -199
-21 -389 -30 l-157 -7 -5 34 c-3 19 -15 133 -26 254 -19 202 -32 318 -46 402
-4 30 -3 32 33 36 21 2 85 4 142 3 l104 -1 54 -90z m-2861 -216 c19 -21 19
-22 -6 -38 -203 -133 -543 -423 -769 -656 l-124 -128 -49 51 c-26 28 -48 55
-48 60 0 21 213 210 395 353 173 135 287 212 530 360 39 24 48 24 71 -2z
m4966 -70 c248 -166 482 -355 688 -555 l125 -122 -40 -37 c-45 -41 -179 -135
-194 -135 -5 0 -54 51 -109 113 -186 208 -534 536 -714 671 -21 16 -38 31 -38
35 0 3 29 28 65 54 36 27 65 53 65 59 0 16 20 5 152 -83z m-4679 -114 c-1 -4
-66 -66 -145 -140 -196 -182 -397 -404 -618 -682 l-25 -32 -90 41 c-110 50
-245 128 -245 142 0 18 356 364 489 475 104 87 222 177 385 296 l29 21 111
-57 c61 -32 110 -61 109 -64z m4467 -59 c193 -155 498 -448 668 -642 l62 -72
-96 -42 c-106 -46 -310 -120 -334 -120 -9 0 -23 13 -32 28 -33 55 -255 349
-358 472 -58 69 -158 180 -224 248 -65 67 -117 124 -115 125 2 2 36 14 74 27
39 13 102 38 140 55 l70 32 35 -25 c19 -14 69 -53 110 -86z m-4314 11 c38 -13
116 -36 174 -52 58 -16 107 -30 109 -31 1 -2 -28 -40 -67 -86 -145 -174 -343
-456 -486 -695 -43 -73 -73 -113 -84 -113 -52 0 -512 137 -512 152 0 18 171
226 339 412 102 113 436 436 452 436 3 0 37 -10 75 -23z m3940 -169 c71 -73
178 -191 237 -263 160 -191 366 -470 355 -480 -14 -14 -546 -135 -593 -135 -9
0 -25 21 -39 53 -66 151 -285 533 -420 736 -42 63 -76 117 -76 121 0 3 57 19
128 33 70 15 156 36 192 46 36 10 70 19 76 20 6 0 69 -59 140 -131z m-3441 42
c109 -20 300 -50 321 -50 7 0 -30 -83 -80 -184 -76 -152 -186 -395 -259 -577
-15 -36 -15 -36 -91 -44 -55 -5 -79 -11 -86 -23 -7 -12 -9 -13 -10 -3 0 11
-22 12 -117 8 -65 -4 -124 -7 -130 -7 -20 0 -15 -30 4 -30 10 0 13 -3 7 -9
-11 -11 -229 20 -316 45 -14 4 -5 25 54 122 199 330 539 789 577 778 9 -3 66
-14 126 -26z m2924 -162 c157 -236 409 -679 426 -749 6 -25 5 -26 -62 -37
-168 -27 -662 -87 -667 -81 -2 2 -20 64 -40 137 -48 174 -154 497 -216 662
-28 73 -50 135 -50 139 0 4 57 13 128 21 70 7 177 21 237 30 61 10 119 18 130
19 15 0 43 -34 114 -141z m-2294 78 c94 -9 205 -18 248 -22 66 -5 77 -8 73
-22 -26 -82 -175 -868 -176 -921 0 -12 -19 -13 -112 -7 -101 7 -213 22 -180
25 6 0 12 7 12 15 0 9 7 12 19 9 10 -3 22 0 25 6 4 6 18 11 32 11 14 0 23 4
20 8 -2 4 32 16 77 27 80 18 81 19 47 27 -19 6 -59 7 -90 4 -30 -4 -84 -8
-120 -10 -36 -2 -77 -6 -90 -10 -21 -6 -22 -5 -7 4 9 6 17 16 17 22 0 10 -38
8 -115 -7 l-30 -6 25 15 c14 8 37 15 52 16 15 0 30 5 33 10 4 6 -11 10 -39 10
-25 0 -48 5 -52 11 -3 6 -15 9 -25 6 -11 -3 -19 -1 -19 4 0 5 -49 9 -110 9
l-110 0 21 53 c55 141 150 352 242 535 l101 204 30 -6 c17 -3 108 -12 201 -20z
m1655 -111 c84 -216 280 -829 269 -840 -6 -5 -270 -24 -441 -31 -114 -5 -158
-3 -158 5 0 13 -47 15 -52 2 -1 -5 -16 -13 -32 -17 -22 -5 -28 -4 -24 7 3 8
14 15 26 17 23 4 30 21 10 23 -23 2 -33 5 -59 16 -15 7 -42 13 -60 15 l-34 4
-6 100 c-22 339 -47 684 -54 735 l-5 36 258 12 c141 7 259 15 261 17 2 2 17 4
32 4 26 0 30 -7 69 -105z m-681 69 c5 -5 48 -576 57 -752 7 -144 7 -144 -14
-133 -24 13 -69 15 -76 3 -8 -13 18 -38 59 -55 38 -17 24 -17 -372 -14 -226 1
-414 5 -418 8 -11 12 92 582 161 886 l15 68 292 -3 c161 -2 294 -5 296 -8z
m-3542 -325 c26 -28 50 -55 52 -61 2 -5 -14 -29 -36 -51 -154 -163 -426 -542
-587 -819 -37 -65 -71 -118 -76 -118 -11 0 -140 138 -140 150 0 39 286 445
461 655 76 90 267 295 275 295 2 0 25 -23 51 -51z m6947 -119 c133 -151 234
-278 347 -437 108 -152 249 -377 249 -397 0 -27 -183 -177 -242 -199 -12 -4
-24 3 -38 23 -12 17 -19 30 -15 30 16 0 -20 43 -54 64 -28 18 -54 53 -101 133
-122 210 -312 487 -452 661 -33 41 -58 75 -56 76 2 2 37 26 78 54 41 28 93 68
115 89 29 28 44 36 54 29 7 -6 59 -62 115 -126z m-6756 -27 c71 -42 110 -62
230 -114 l43 -19 -39 -52 c-21 -29 -61 -87 -89 -128 l-50 -75 -92 -30 c-51
-16 -94 -33 -97 -37 -8 -12 40 -20 90 -14 27 3 44 1 41 -5 -4 -5 -15 -9 -26
-9 -10 0 -19 -5 -19 -10 0 -7 -6 -7 -19 0 -12 6 -22 6 -25 1 -6 -9 -47 -7 -98
5 -18 4 -28 2 -28 -5 0 -6 -6 -11 -13 -11 -16 0 -57 -37 -57 -51 0 -7 13 -8
33 -4 21 4 27 3 18 -3 -18 -13 -3 -19 39 -16 54 3 74 8 88 22 16 14 46 16 37
2 -3 -5 0 -10 7 -10 7 -1 2 -7 -12 -15 -14 -8 -19 -14 -12 -15 23 0 3 -17 -28
-23 -16 -4 -30 -11 -30 -17 0 -7 8 -9 20 -5 23 7 27 -7 6 -24 -18 -15 -46 -4
-39 16 4 11 2 14 -5 9 -7 -4 -42 -9 -78 -11 -36 -2 -71 -8 -77 -14 -8 -8 2
-11 38 -9 45 3 49 1 55 -22 5 -22 10 -24 44 -22 l38 4 -42 -79 c-24 -43 -46
-81 -50 -86 -3 -4 -18 3 -33 17 -30 28 -27 66 5 66 11 0 34 12 51 26 l31 26
-57 -5 c-69 -6 -87 -19 -87 -63 0 -20 -8 -40 -19 -51 -25 -23 -21 -57 7 -61
12 -2 22 -10 22 -18 0 -8 5 -12 10 -9 6 3 10 2 10 -4 0 -6 -13 -17 -30 -26
-16 -9 -30 -22 -30 -31 0 -8 -5 -12 -11 -9 -6 4 -8 13 -5 21 3 9 -1 14 -12 15
-13 0 -11 3 5 9 15 6 21 15 17 25 -9 22 -47 19 -62 -5 -7 -12 -8 -20 -2 -20 6
0 5 -8 -2 -19 -11 -18 -41 -28 -113 -36 -14 -1 -25 1 -25 5 0 13 -36 7 -62
-12 -16 -11 -28 -15 -28 -9 0 6 4 11 9 11 5 0 17 8 27 17 10 10 29 16 45 15
36 -4 78 16 58 29 -10 6 -6 11 16 20 l30 12 -35 6 c-34 6 -35 8 -34 49 0 23
-3 42 -8 42 -4 0 -8 -4 -8 -9 0 -5 -9 -13 -20 -16 -13 -4 -20 -15 -20 -31 0
-25 -14 -32 -24 -11 -5 10 -7 10 -12 0 -3 -7 -14 -13 -24 -13 -10 0 -22 -5
-26 -11 -4 -7 -9 -8 -17 0 -7 7 -20 2 -43 -15 -27 -21 -36 -24 -54 -14 -27 14
-27 14 62 164 146 248 336 516 526 744 48 56 88 102 90 102 2 0 38 -21 80 -47z
m6424 -166 c157 -201 426 -604 445 -666 4 -15 4 -15 -6 0 -6 9 -32 22 -58 29
-27 6 -55 15 -63 18 -8 3 -17 6 -20 7 -3 1 -18 8 -33 15 -17 8 -31 10 -35 4
-4 -5 -20 -10 -37 -12 -16 -2 -26 0 -22 4 13 13 80 34 110 34 34 0 35 18 0 47
-29 26 -47 31 -108 36 -24 2 -39 8 -37 15 1 7 -9 12 -23 12 -16 0 -25 6 -25
15 0 25 -97 24 -117 -1 -8 -11 -30 -15 -80 -15 -37 1 -96 1 -130 1 -35 0 -63
3 -63 8 0 5 -50 92 -111 193 -61 101 -111 188 -112 192 -1 4 41 23 93 41 117
41 240 90 289 116 20 10 41 19 46 19 6 0 49 -50 97 -112z m-5697 -112 c77 -20
142 -39 144 -41 11 -10 -25 -34 -50 -34 -19 0 -29 -5 -29 -15 0 -10 -10 -15
-32 -15 -35 0 -148 -28 -162 -41 -4 -4 7 -6 25 -6 24 2 34 -2 34 -12 0 -11
-33 -21 -125 -37 -69 -13 -126 -23 -127 -23 -2 -1 -3 -5 -3 -11 0 -10 53 -22
105 -24 44 -1 34 -16 -11 -16 -19 0 -34 -4 -34 -10 0 -5 13 -10 29 -10 16 0
31 -6 34 -12 4 -13 71 -14 163 -3 l42 5 -74 -163 c-53 -116 -79 -162 -91 -162
-9 0 -18 6 -20 13 -3 6 2 12 10 12 10 0 13 7 10 20 -4 13 -14 20 -30 20 -13 0
-22 4 -19 9 3 5 -17 11 -45 15 -27 4 -47 11 -44 16 7 11 -31 24 -45 15 -5 -3
-28 3 -52 15 -23 11 -51 20 -62 20 -16 0 -18 2 -7 9 11 7 10 11 -7 20 -23 12
-122 15 -122 4 0 -5 -26 -7 -58 -7 -93 2 -102 4 -102 14 0 12 28 19 112 24 37
3 86 14 111 26 75 36 147 118 105 121 -8 0 -7 3 2 6 19 8 40 29 40 42 0 13 58
41 87 41 23 0 30 2 90 34 17 9 37 16 44 16 7 0 31 9 53 20 23 10 68 26 101 33
37 9 50 15 33 16 -15 1 -29 5 -32 9 -7 12 -340 4 -401 -9 -114 -25 -125 -26
-118 -15 3 6 35 52 70 101 l63 90 127 -41 c71 -23 191 -59 268 -79z m5122 1
c55 -85 203 -336 203 -344 0 -11 -56 -25 -89 -22 -21 1 -23 -1 -17 -23 5 -23
3 -26 -33 -32 -22 -4 -65 -3 -95 0 -30 4 -59 4 -64 1 -18 -11 -1 -46 22 -46
11 0 32 -9 46 -19 20 -16 22 -21 11 -35 -15 -18 -31 -21 -31 -6 0 6 7 10 15
10 8 0 15 4 15 9 0 5 -11 9 -24 9 -13 0 -43 7 -67 15 -24 9 -57 18 -73 22 -27
6 -28 5 -15 -11 12 -15 11 -16 -20 -9 -26 5 -32 4 -29 -6 3 -8 17 -16 33 -19
16 -3 30 -11 33 -18 3 -11 0 -12 -16 -3 -11 6 -34 11 -50 11 -31 0 -46 19 -36
44 3 8 0 17 -7 22 -8 4 -10 3 -5 -5 5 -8 -3 -16 -23 -24 -35 -13 -39 -24 -14
-42 15 -11 15 -15 4 -29 -22 -27 -6 -46 39 -46 25 0 39 -4 35 -10 -3 -6 -17
-7 -30 -4 -27 7 -42 -11 -25 -31 14 -16 -1 -28 -25 -19 -10 4 -15 14 -12 25 3
11 -1 20 -12 24 -13 4 -16 15 -14 50 2 34 -1 47 -13 52 -13 5 -13 8 1 29 15
23 14 25 -10 34 -15 6 -34 10 -43 11 -14 0 -13 2 3 9 18 8 17 9 -8 9 -16 1
-26 -3 -23 -8 3 -5 -4 -11 -15 -14 -16 -4 -24 2 -35 29 -8 19 -21 50 -29 70
-19 45 -20 41 10 48 33 8 22 26 -16 26 -16 0 -29 2 -29 4 0 2 -15 37 -34 78
l-34 75 176 37 c98 20 233 51 302 70 69 18 130 34 135 35 6 0 20 -14 32 -33z
m-3617 -120 c0 -3 -4 -8 -10 -11 -5 -3 -10 -1 -10 4 0 6 5 11 10 11 6 0 10 -2
10 -4z m2943 -78 c21 -45 35 -83 33 -85 -2 -2 -50 -9 -107 -14 -56 -6 -114
-16 -128 -22 -14 -5 -30 -9 -34 -8 -4 1 -14 -4 -21 -11 -34 -32 -57 -48 -71
-48 -8 0 -15 -5 -15 -10 0 -6 -11 -16 -25 -22 -14 -6 -25 -17 -25 -25 0 -7
-10 -17 -22 -22 l-22 -8 24 -14 c14 -7 29 -12 34 -11 5 2 13 -2 17 -9 4 -7 35
-14 71 -17 l63 -4 -32 21 c-48 30 -44 59 16 99 70 48 167 85 236 90 l61 4 36
-88 c34 -82 35 -90 20 -102 -15 -11 -15 -14 -2 -22 12 -8 13 -13 2 -30 -11
-17 -10 -20 6 -20 20 0 59 -36 50 -45 -3 -3 -39 5 -79 19 -41 13 -103 27 -139
31 -36 4 -74 14 -85 21 -23 16 -45 18 -45 4 0 -6 13 -13 28 -16 16 -3 34 -14
40 -25 10 -16 9 -19 -14 -25 -15 -4 -29 -2 -33 5 -5 7 -17 8 -37 2 -16 -4 -45
-6 -65 -3 -21 2 -40 -1 -43 -7 -4 -6 -16 -11 -28 -11 -14 0 -18 5 -14 16 5 12
2 15 -11 9 -10 -3 -38 -10 -63 -15 -25 -5 -61 -16 -81 -24 -20 -8 -39 -13 -42
-10 -3 3 -10 -4 -17 -15 -12 -24 -55 -28 -82 -7 -20 15 -14 26 14 26 19 0 25
15 9 24 -4 3 -22 7 -40 8 -18 1 -33 9 -35 18 -3 8 -23 89 -45 180 -22 91 -42
173 -46 182 -5 14 3 17 52 22 254 27 603 74 694 95 3 0 22 -36 42 -81z m-4954
38 c-2 -2 -18 -7 -34 -11 l-30 -6 30 14 c27 13 45 14 34 3z m4110 -103 c23
-86 101 -409 101 -419 0 -6 -23 -21 -51 -32 -44 -19 -50 -24 -44 -43 7 -20 5
-21 -31 -14 -22 5 -52 9 -69 9 -16 1 -36 7 -44 14 -7 7 -20 11 -27 8 -7 -3
-11 0 -8 8 2 6 -10 20 -28 29 l-33 17 30 -5 c172 -31 268 -21 250 27 -6 16
-192 91 -216 88 -37 -6 -90 1 -84 10 4 6 -15 10 -49 10 -30 0 -58 5 -61 10 -4
6 6 10 22 10 22 0 25 2 13 10 -8 5 -30 10 -47 10 -18 0 -33 5 -33 10 0 15 -16
12 -34 -5 -8 -8 -22 -12 -30 -9 -9 3 -24 0 -34 -7 -14 -11 -15 -11 -4 1 22 25
13 29 -30 14 -22 -8 -43 -12 -46 -9 -3 3 -11 0 -18 -6 -8 -6 -29 -11 -48 -12
-19 0 -34 -3 -34 -6 2 -20 -4 -22 -21 -7 -17 16 -21 16 -55 -1 -19 -10 -34
-23 -31 -30 4 -13 -22 -26 -29 -14 -3 4 -8 76 -12 159 -4 84 -7 155 -8 159 -1
5 114 14 254 20 140 7 302 16 360 21 58 5 131 10 162 11 l57 1 10 -37z m-1839
8 c14 -5 12 -32 -18 -241 -18 -129 -35 -236 -38 -239 -2 -2 -22 6 -45 18 -27
16 -44 20 -52 13 -7 -5 -31 -8 -54 -6 -24 1 -45 -1 -48 -6 -3 -5 -12 -7 -20
-3 -8 3 -15 0 -15 -6 0 -18 -28 -13 -50 9 -21 21 -56 28 -44 8 5 -7 3 -8 -6
-3 -7 4 -16 2 -21 -6 -14 -22 -11 -26 21 -21 18 3 30 0 30 -7 0 -6 -9 -11 -20
-11 -11 0 -20 -5 -20 -10 0 -6 6 -10 13 -9 25 3 37 -1 37 -15 0 -8 -6 -16 -12
-19 -24 -7 123 -18 160 -11 20 4 61 17 91 30 l54 24 -7 -57 c-4 -32 -14 -121
-22 -198 -8 -77 -19 -178 -24 -225 -5 -47 -10 -95 -10 -108 0 -23 -1 -23 -77
-18 -43 4 -170 13 -283 22 -113 8 -290 24 -395 35 -104 10 -194 19 -200 19 -5
0 -16 4 -23 9 -16 9 -1 84 49 246 29 91 35 103 87 155 48 46 79 64 197 116 77
34 172 72 210 84 39 12 84 30 100 40 48 29 128 119 121 135 -3 8 0 14 6 12 11
-2 71 104 63 112 -3 2 0 11 7 18 9 11 9 17 -3 24 -10 6 -11 9 -1 9 9 0 12 12
8 43 -2 23 -2 34 0 25 6 -21 24 -24 24 -5 0 28 22 34 118 29 53 -2 103 -7 112
-11z m662 -11 l266 0 8 -97 c4 -54 8 -143 8 -198 1 -94 0 -101 -21 -110 -12
-5 -31 -26 -43 -47 -12 -21 -25 -38 -30 -38 -5 0 -24 -13 -42 -29 -18 -15 -64
-40 -103 -56 -90 -35 -103 -47 -99 -88 2 -18 8 -33 13 -35 5 -2 6 -12 3 -24
-4 -15 -2 -19 7 -13 10 5 11 2 7 -13 -10 -32 40 -56 83 -39 17 6 31 15 31 19
0 4 6 8 14 8 9 0 12 -7 9 -20 -3 -12 0 -20 7 -20 7 0 6 -5 -4 -15 -8 -8 -21
-15 -29 -15 -8 0 -18 -7 -21 -16 -9 -22 -7 -64 2 -64 4 0 8 -8 9 -18 1 -9 3
-23 5 -31 2 -10 -10 -17 -37 -23 -82 -17 -87 -19 -81 -33 3 -8 1 -17 -4 -20
-6 -4 -10 -1 -10 4 0 20 -16 11 -33 -19 -12 -20 -28 -31 -54 -36 -23 -4 -37
-13 -41 -26 -4 -17 -11 -18 -61 -12 -69 8 -78 14 -22 14 50 0 91 18 71 30 -11
7 -10 12 4 25 22 23 15 40 -17 40 -14 -1 -24 2 -21 6 7 11 -27 69 -40 69 -7 0
-18 11 -24 25 -7 14 -21 29 -32 33 l-21 8 21 23 c29 34 25 41 -22 41 -40 0
-41 0 -23 20 18 20 17 20 -12 20 -22 0 -36 -7 -47 -25 -9 -14 -21 -23 -26 -20
-6 4 -10 1 -10 -4 0 -6 5 -11 11 -11 6 0 9 -7 5 -15 -3 -8 -1 -15 4 -15 6 0
10 -9 10 -20 0 -14 5 -18 16 -13 13 5 15 2 9 -17 -7 -21 -5 -22 23 -18 22 3
29 1 25 -9 -3 -7 2 -16 11 -19 12 -5 13 -10 5 -26 -8 -15 -17 -18 -35 -14 -22
6 -23 5 -12 -13 10 -17 8 -23 -13 -40 l-24 -20 29 -1 29 0 -24 -26 -24 -26
-148 4 c-81 3 -150 8 -154 11 -6 7 3 90 53 507 28 234 72 553 81 589 l6 24
156 -6 c86 -4 276 -7 423 -7z m-2875 -6 c-3 -3 -12 -4 -19 -1 -8 3 -5 6 6 6
11 1 17 -2 13 -5z m-127 -74 c8 -5 11 -10 5 -10 -66 -4 -105 -9 -123 -14 -17
-6 -21 -4 -16 8 3 9 22 16 47 19 23 2 49 4 57 5 8 1 22 -3 30 -8z m793 -70
c15 -7 27 -21 27 -30 0 -9 6 -22 13 -29 10 -11 10 -13 0 -7 -7 4 -13 2 -13 -3
0 -11 19 -15 58 -12 12 1 22 -3 22 -8 0 -5 8 -12 18 -14 13 -4 11 -5 -5 -6
-13 0 -23 5 -24 12 0 10 -2 10 -6 0 -2 -7 -12 -13 -21 -13 -15 0 -15 -2 -2
-10 12 -8 12 -10 -3 -16 -23 -9 -21 -21 6 -30 27 -9 57 -6 75 9 10 8 16 7 23
-4 17 -27 10 -39 -25 -39 -28 0 -35 -5 -44 -27 -15 -41 -8 -80 16 -104 12 -11
22 -26 22 -34 0 -8 5 -15 10 -15 6 0 10 -6 10 -12 0 -17 113 -138 129 -138 7
0 28 -12 47 -27 21 -15 49 -27 68 -27 l33 -1 -24 -110 c-13 -60 -27 -122 -30
-137 -4 -22 -11 -28 -32 -28 -45 0 -372 51 -413 64 -10 3 -26 9 -35 13 -10 3
-20 7 -23 7 -24 6 -60 42 -60 61 0 13 -4 25 -8 27 -5 2 -31 33 -59 70 l-50 67
-19 -35 c-10 -20 -32 -42 -47 -50 -25 -13 -31 -13 -56 2 -28 17 -29 18 -16 55
14 39 50 107 41 77 -4 -15 -2 -16 22 -5 15 6 34 20 44 30 10 11 19 14 23 7 3
-6 11 -7 17 -4 6 4 5 10 -3 15 -12 8 -11 12 3 23 17 12 15 16 -18 50 -21 22
-33 43 -30 51 7 19 26 19 26 1 0 -8 12 -17 26 -20 21 -6 32 0 60 28 19 19 34
37 34 39 0 3 -16 8 -36 11 -19 4 -43 15 -54 26 -17 17 -17 21 31 121 27 57 59
122 71 145 l21 40 66 -22 c36 -12 78 -27 94 -34z m-946 -58 c-17 -18 -17 -37
-3 -60 7 -11 4 -12 -12 -3 -30 16 -34 48 -9 66 29 21 44 19 24 -3z m228 -1
c-11 -10 -82 -17 -82 -7 0 6 19 11 43 11 24 0 41 -1 39 -4z m-1174 -382 c-136
-282 -235 -536 -314 -804 -23 -80 -47 -145 -52 -145 -13 0 -91 80 -129 132
-33 44 -33 43 26 228 92 287 250 654 372 862 l26 45 75 -77 75 -77 -79 -164z
m1194 261 c22 -11 34 -20 27 -20 -7 0 -12 -4 -12 -10 0 -5 12 -9 28 -9 46 2
88 -15 97 -39 4 -11 -4 -25 -27 -44 -25 -21 -30 -30 -19 -37 9 -6 -1 -11 -33
-15 -25 -4 -50 -5 -55 -2 -10 7 -57 -32 -48 -40 7 -7 36 -7 96 1 33 4 51 0 77
-16 19 -11 34 -25 34 -30 0 -5 7 -9 15 -9 8 0 15 -5 15 -11 0 -6 7 -9 15 -5
18 6 18 7 4 -33 -7 -20 -18 -31 -30 -31 -10 0 -19 4 -19 10 0 20 -46 33 -126
35 l-84 3 6 -54 c3 -34 0 -63 -8 -77 -7 -12 -11 -25 -10 -29 1 -5 -2 -8 -7 -8
-16 0 -244 68 -294 87 l-47 19 45 38 c25 20 43 41 40 46 -3 4 2 10 10 14 8 3
15 1 15 -4 0 -17 35 -11 58 10 17 16 26 18 41 10 25 -13 71 -13 71 0 0 6 -9
10 -20 10 -11 0 -20 4 -20 10 0 5 -20 19 -45 30 -25 11 -45 25 -45 31 0 6 6 6
19 0 16 -9 18 -8 14 10 -3 11 -2 19 3 18 23 -4 42 3 63 22 21 19 21 23 7 31
-20 11 -21 28 -1 28 19 0 19 14 0 33 -17 17 -10 28 13 20 11 -5 13 -2 8 8 -4
8 -1 6 7 -4 12 -15 19 -16 41 -6 14 7 26 16 26 21 0 12 12 10 55 -12z m-262
-31 c3 -11 1 -19 -3 -19 -5 0 -11 -9 -15 -19 -4 -13 -11 -18 -22 -14 -12 5
-15 2 -10 -9 7 -21 -18 -31 -32 -14 -6 8 -8 21 -5 30 5 12 0 19 -15 23 -24 6
-26 13 -8 35 25 34 100 24 110 -13z m7515 -171 c136 -277 238 -533 312 -786
l33 -113 -54 -55 c-30 -31 -85 -78 -124 -106 l-70 -49 -13 68 c-84 447 -280
1002 -375 1062 -16 11 -17 10 -8 -8 13 -24 14 -31 3 -31 -5 0 -14 11 -20 24
-10 22 -7 27 42 59 28 19 76 57 106 85 30 28 58 51 61 52 4 0 52 -91 107 -202z
m-1851 177 c9 -24 -1 -27 -15 -5 -8 13 -8 20 -2 20 6 0 13 -7 17 -15z m-5857
-5 c0 -5 -5 -10 -11 -10 -5 0 -7 5 -4 10 3 6 8 10 11 10 2 0 4 -4 4 -10z
m-595 -120 c-3 -6 1 -7 9 -4 26 10 18 -16 -13 -45 -27 -26 -106 -179 -96 -189
2 -3 -4 -17 -14 -31 -24 -34 -80 -188 -136 -376 -44 -145 -115 -452 -115 -494
0 -26 -4 -26 -47 0 -32 20 -34 24 -28 58 10 52 90 307 137 435 92 253 276 656
298 656 6 0 8 -4 5 -10z m783 -8 c2 -7 -3 -12 -11 -12 -9 0 -22 -18 -30 -42
-15 -42 -15 -42 -16 -12 -1 17 5 37 13 44 8 6 12 18 10 25 -4 9 1 13 12 11 10
-2 20 -8 22 -14z m-664 -68 c0 -5 -9 -11 -19 -13 -17 -3 -18 -1 -6 13 26 31
-13 18 -60 -21 -29 -24 -36 -28 -20 -10 14 15 22 30 19 33 -4 3 1 13 10 23 16
16 19 16 47 1 17 -9 30 -21 29 -26z m4939 19 c-7 -2 -19 -2 -25 0 -7 3 -2 5
12 5 14 0 19 -2 13 -5z m-5088 -123 c-10 -11 -24 -20 -32 -20 -8 0 -2 10 14
24 33 28 45 25 18 -4z m4542 -43 c19 -9 41 -11 68 -6 54 10 65 -5 15 -20 -23
-7 -40 -18 -40 -26 0 -8 -4 -15 -10 -15 -5 0 -10 5 -10 10 0 6 -5 10 -11 10
-5 0 -8 -4 -5 -9 4 -5 0 -11 -6 -14 -7 -2 -10 -8 -6 -12 5 -5 19 -3 33 3 15 7
26 8 30 1 4 -5 10 -7 14 -4 5 2 6 -7 3 -20 -6 -34 -20 -40 -41 -21 -41 37 -85
-4 -74 -69 5 -34 4 -37 -14 -31 -14 4 -23 1 -27 -9 -6 -17 -41 -20 -51 -5 -3
6 -15 10 -26 10 -15 0 -19 7 -19 36 0 19 4 33 9 29 5 -3 12 4 16 15 3 11 13
20 21 20 8 0 14 7 14 15 0 8 -6 15 -12 15 -9 0 -10 3 -2 8 6 4 15 25 21 47 6
26 14 39 24 38 8 -2 20 11 28 29 13 30 15 30 22 10 4 -11 21 -27 36 -35z
m-3752 -100 c83 -24 180 -52 218 -62 37 -10 67 -21 67 -26 0 -14 -62 -59 -82
-59 -15 0 -18 -4 -13 -17 12 -28 23 -95 19 -108 -3 -6 -13 -16 -23 -22 -15
-10 -24 -6 -55 24 -34 33 -43 61 -37 110 2 13 -14 18 -82 27 -21 3 -67 19
-103 37 -43 20 -75 30 -94 27 -41 -6 -46 18 -18 76 15 32 27 45 38 41 8 -2 83
-24 165 -48z m3365 -83 c-12 -14 -1 -54 15 -54 8 0 16 8 19 18 11 32 106 9
106 -26 0 -17 -40 -21 -56 -5 -13 13 -22 14 -51 5 -39 -12 -77 -3 -86 21 -4
11 0 13 14 10 21 -6 25 7 7 25 -9 9 -9 12 0 12 8 0 10 9 6 28 l-7 27 21 -25
c12 -15 17 -29 12 -36z m-2195 -165 c167 -24 170 -25 169 -39 -1 -8 -20 -105
-43 -215 -44 -217 -78 -409 -111 -635 -26 -181 -27 -193 -35 -260 -4 -30 -8
-60 -10 -66 -2 -8 -29 -8 -97 3 -400 60 -603 95 -775 134 -104 23 -101 19 -79
109 9 38 24 67 50 95 20 21 56 80 81 130 52 108 139 207 283 323 96 77 154
112 187 112 9 0 13 5 10 10 -3 6 3 10 14 10 24 0 38 19 21 30 -7 4 -9 13 -6
19 4 6 2 11 -4 11 -6 0 -15 -11 -21 -24 -13 -28 -33 -35 -69 -25 l-25 7 28 1
c36 1 34 17 -3 25 -27 5 -29 8 -21 25 13 23 66 49 126 60 44 8 73 -3 41 -15
-31 -12 -15 -21 42 -24 31 -1 64 -3 73 -3 11 -1 15 -7 11 -17 -5 -13 -4 -13
14 0 37 29 55 53 45 63 -5 5 -7 16 -4 25 5 12 1 14 -21 10 -19 -4 -31 0 -41
14 -9 13 -18 17 -27 12 -8 -5 -6 2 5 19 9 15 14 27 10 27 -5 0 -1 5 7 10 13 8
12 10 -3 10 -10 0 -30 -12 -44 -27 -15 -16 -23 -22 -18 -14 4 8 2 17 -6 22
-11 7 -10 9 4 9 25 0 67 30 67 47 0 17 13 16 175 -8z m735 -83 c102 -9 254
-20 339 -26 85 -5 156 -12 158 -14 2 -2 -1 -53 -7 -112 -6 -60 -13 -131 -15
-159 -9 -90 -34 -437 -45 -615 -19 -310 -20 -320 -38 -320 -80 1 -759 55 -867
70 -38 5 -103 12 -143 16 -49 4 -75 11 -79 20 -16 43 154 1056 197 1168 l8 22
154 -17 c84 -10 236 -24 338 -33z m973 17 c-7 -2 -21 -2 -30 0 -10 3 -4 5 12
5 17 0 24 -2 18 -5z m-68 -73 c26 -7 27 -8 7 -9 -33 -1 -23 -22 17 -36 50 -17
85 -68 82 -123 -1 -25 -5 -50 -11 -56 -9 -11 -179 -12 -208 -1 -7 3 -23 -2
-36 -10 -21 -14 -22 -20 -15 -66 6 -38 4 -61 -8 -91 -12 -29 -13 -42 -4 -51 6
-6 11 -21 11 -33 0 -24 23 -37 51 -29 12 4 23 -2 35 -20 11 -18 24 -25 36 -22
11 3 18 0 18 -8 0 -7 6 -15 13 -18 6 -2 9 -7 6 -11 -4 -4 -14 0 -23 9 -20 21
-32 13 -46 -30 -7 -21 -25 -42 -47 -56 -47 -29 -73 -74 -73 -128 0 -37 -5 -48
-37 -77 -20 -19 -45 -34 -55 -34 -12 0 -24 -13 -33 -34 -8 -18 -21 -36 -29
-39 -8 -3 -17 -20 -21 -37 -4 -18 -18 -49 -32 -69 l-25 -36 5 100 c3 66 9 101
17 103 10 4 10 6 0 12 -9 6 -8 59 4 241 9 129 21 279 26 334 5 55 12 129 15
165 3 36 8 90 11 121 l6 56 156 -5 c86 -2 171 -7 187 -12z m88 -7 c-7 -2 -19
-2 -25 0 -7 3 -2 5 12 5 14 0 19 -2 13 -5z m1491 -233 c56 -38 64 -59 35 -83
-33 -27 -128 -19 -198 16 -46 23 -79 21 -125 -7 -32 -19 -44 -22 -63 -13 l-22
10 30 39 c44 55 81 71 179 78 91 6 98 4 164 -40z m-5703 -334 c-43 -199 -57
-278 -80 -466 -20 -158 -41 -416 -41 -510 l0 -44 -51 49 c-28 28 -65 70 -81
94 l-31 44 7 181 c4 100 11 219 16 266 11 106 28 237 35 270 3 14 10 54 15 90
6 36 24 125 40 198 17 73 30 135 30 137 0 2 39 -35 86 -82 l86 -86 -31 -141z
m4834 276 c-3 -3 -11 0 -18 7 -9 10 -8 11 6 5 10 -3 15 -9 12 -12z m-222 -12
c15 18 85 15 107 -5 8 -7 17 -13 20 -12 9 2 64 -37 88 -61 33 -34 28 -58 -13
-72 -20 -7 -42 -9 -50 -6 -8 3 -22 3 -31 -1 -11 -4 -4 -12 26 -29 53 -30 60
-30 60 1 0 14 6 25 14 25 13 0 26 -114 26 -237 0 -53 -17 -73 -27 -33 -6 21
-60 50 -95 50 -19 0 -98 36 -98 46 0 2 8 16 17 30 14 22 14 29 4 46 -9 15 -10
23 -2 31 16 16 13 27 -4 21 -8 -4 -15 -1 -15 6 0 8 -13 9 -42 5 -94 -13 -116
-15 -189 -19 -42 -2 -86 -7 -98 -11 -19 -6 -20 -4 -11 19 20 54 60 106 81 106
15 0 19 5 15 15 -7 18 60 59 127 76 26 7 47 18 47 23 0 5 7 1 15 -10 13 -17
17 -17 28 -4z m337 -23 c1 4 7 -7 15 -24 8 -18 23 -43 34 -55 12 -12 21 -25
21 -30 0 -4 7 -8 16 -8 13 0 14 -3 5 -14 -8 -10 -9 -16 -1 -21 6 -3 8 -11 5
-16 -4 -5 1 -9 9 -9 9 0 16 -4 16 -10 0 -5 7 -10 16 -10 11 0 14 6 9 21 -5 15
-4 19 4 15 6 -4 11 -3 11 1 0 12 60 33 94 33 18 0 29 -7 35 -22 5 -13 7 -25 6
-28 -2 -3 8 -6 22 -6 13 -1 33 -10 43 -19 20 -18 60 -13 60 8 0 7 9 -3 20 -20
11 -18 26 -33 34 -33 9 0 12 -7 9 -21 -5 -19 -3 -20 18 -14 30 9 28 9 66 0
l31 -7 -23 -67 c-28 -80 -40 -89 -97 -74 -34 9 -49 8 -78 -3 -28 -12 -43 -12
-66 -4 -15 6 -47 14 -69 17 -22 3 -41 9 -43 14 -2 5 -11 9 -20 9 -9 0 -30 9
-47 20 -36 24 -63 25 -94 4 -16 -12 -22 -23 -18 -41 2 -14 -3 -33 -12 -44 -16
-20 -17 -20 -39 -2 -21 17 -22 27 -27 223 -4 135 -2 200 4 190 6 -8 13 -11 17
-7 4 4 0 15 -9 25 -24 27 -22 46 3 32 11 -6 20 -7 20 -3z m4308 -134 c66 -304
99 -560 109 -841 l6 -174 -71 -68 c-68 -65 -260 -202 -273 -195 -3 2 -9 97
-12 211 -4 113 -12 237 -19 276 -9 57 -9 71 2 78 17 10 7 273 -18 498 -16 137
-16 154 -2 166 8 7 44 33 80 59 36 25 85 66 110 91 25 25 48 45 51 46 3 0 20
-66 37 -147z m-463 -36 l7 -37 -75 -35 c-42 -19 -78 -35 -80 -35 -3 0 -7 19
-9 43 -3 23 -8 49 -12 57 -5 11 8 24 47 48 29 17 61 32 70 32 9 0 17 6 18 13
1 19 26 -44 34 -86z m-8631 -48 c-1 -19 -9 -103 -18 -188 -12 -116 -13 -156
-5 -162 9 -5 11 -60 10 -190 -2 -182 -11 -245 -22 -159 l-6 45 -1 -55 c0 -56
14 -174 17 -132 0 13 5 21 10 18 14 -9 51 116 51 175 0 30 7 81 15 114 9 33
17 69 19 80 2 11 13 49 25 84 12 35 21 71 21 79 0 8 3 13 6 9 3 -3 -3 -46 -15
-95 -12 -49 -21 -102 -20 -118 1 -23 3 -21 9 13 5 23 16 53 25 66 8 13 13 31
9 40 -3 8 2 28 11 44 9 15 14 21 11 11 -4 -14 1 -14 42 4 26 12 49 25 51 30 1
5 14 -6 28 -24 17 -23 23 -41 19 -59 -4 -19 2 -33 20 -49 14 -14 24 -35 24
-51 0 -15 5 -31 11 -35 9 -5 7 -73 -6 -144 -3 -19 -22 -195 -35 -330 -6 -58
-10 -167 -11 -243 0 -161 17 -151 -144 -80 -111 49 -171 81 -294 156 l-83 52
6 155 c13 287 49 582 107 855 16 77 31 146 34 153 3 9 15 6 42 -12 32 -20 38
-29 37 -57z m8402 29 c11 -18 15 -59 9 -94 -5 -27 -12 -33 -71 -53 -35 -13
-67 -21 -70 -18 -8 8 -10 116 -1 110 4 -2 7 3 7 11 0 9 9 16 20 16 11 0 20 6
20 14 0 13 14 18 67 25 6 0 15 -4 19 -11z m354 -54 c0 -14 -4 -23 -10 -19 -12
8 -13 9 4 -47 8 -25 12 -57 9 -69 -5 -17 -11 -1 -23 56 -15 72 -15 81 -1 93
20 16 21 16 21 -14z m-67 -174 c53 -257 85 -498 81 -600 -2 -45 0 -56 5 -35 5
19 10 -33 15 -145 4 -96 9 -192 12 -212 5 -30 2 -39 -11 -44 -10 -4 -21 -1
-26 7 -7 11 -9 9 -9 -7 0 -17 -17 -29 -79 -57 -151 -70 -444 -177 -481 -177
-12 0 -19 10 -23 34 -6 40 1 76 15 76 6 0 8 6 5 14 -4 9 1 16 10 18 12 2 8 12
-20 40 l-35 37 -11 148 c-6 81 -16 191 -21 243 -16 163 -18 191 -12 186 15
-15 141 85 143 113 1 9 4 5 8 -8 22 -79 49 13 49 165 0 51 3 101 7 113 5 15 2
21 -9 21 -18 0 -21 16 -6 25 8 5 8 11 0 20 -8 10 13 22 97 56 60 24 120 44
134 45 23 1 25 -2 21 -25 -5 -24 -4 -25 11 -9 10 9 17 25 17 36 0 10 7 19 15
19 9 0 15 -9 15 -22 0 -13 8 -29 17 -36 15 -12 16 -12 11 8 -4 16 -2 20 9 16
13 -5 13 -1 -1 26 -9 17 -22 31 -29 31 -6 1 -1 7 13 15 32 18 33 17 63 -135z
m-8371 -95 c2 3 12 -13 22 -35 10 -22 22 -40 27 -40 10 0 12 -34 3 -79 -7 -32
-7 -31 -26 26 -17 52 -41 111 -56 138 -3 6 1 4 10 -2 8 -7 17 -11 20 -8z
m4978 -26 c0 -6 -4 -7 -10 -4 -5 3 -10 11 -10 16 0 6 5 7 10 4 6 -3 10 -11 10
-16z m-4195 -64 c66 -15 125 -32 132 -39 9 -8 9 -28 -1 -86 -7 -41 -21 -145
-31 -230 -10 -85 -20 -157 -22 -159 -1 -2 -9 2 -18 9 -9 8 -40 12 -80 11 l-65
-1 7 27 c4 16 7 43 7 61 0 17 4 32 8 32 4 0 8 12 8 28 0 15 7 40 15 56 8 15
15 31 15 33 0 7 -99 -2 -106 -10 -3 -3 -8 -20 -11 -38 -6 -42 -32 -81 -49 -75
-7 3 -27 1 -43 -5 -39 -14 -75 10 -99 65 -17 37 -17 47 -4 121 7 44 23 97 35
118 22 40 98 97 129 97 10 0 18 5 18 11 0 6 8 8 18 6 9 -3 71 -17 137 -32z
m700 -139 c110 -19 259 -42 330 -51 168 -23 158 -19 151 -58 -11 -62 -49 -528
-56 -690 0 -5 -5 -5 -12 -1 -6 4 -36 8 -65 9 -56 2 -78 17 -116 77 -10 15 -28
30 -42 34 -16 4 -25 13 -25 25 0 12 -11 24 -27 31 -16 7 -36 19 -46 27 -15 13
-21 13 -51 -2 -30 -14 -36 -14 -55 0 -13 9 -32 12 -46 9 -18 -5 -28 0 -43 22
-22 29 -20 29 -93 -2 -23 -10 -35 25 -14 40 9 7 12 15 7 18 -5 3 -17 -3 -27
-14 -10 -11 -34 -25 -54 -31 -48 -15 -61 -27 -61 -54 0 -12 -9 -30 -20 -40
-11 -10 -20 -25 -20 -33 0 -9 -8 -4 -21 12 -31 39 -64 50 -94 30 -16 -10 -34
-14 -51 -10 l-26 7 6 97 c4 53 9 117 11 142 9 79 37 315 39 317 4 5 76 -23 76
-30 0 -4 11 -12 25 -17 14 -5 25 -16 25 -25 0 -11 11 -15 40 -15 41 0 54 13
23 24 -10 3 -36 17 -58 31 -22 14 -59 35 -83 46 -37 19 -42 25 -38 48 3 14 7
47 11 72 l6 46 147 -29 c81 -16 237 -44 347 -62z m4250 74 c30 -11 30 -18 6
-47 -12 -15 -30 -23 -50 -23 -30 0 -31 1 -31 46 0 50 3 51 75 24z m-5572 -113
c10 -15 21 -56 25 -90 7 -54 13 -67 45 -100 21 -20 44 -37 51 -37 8 0 16 -6
19 -13 2 -7 35 -27 71 -46 61 -30 70 -32 108 -23 40 10 42 10 75 -26 18 -20
33 -39 33 -43 0 -4 34 -18 75 -31 41 -13 75 -27 75 -31 0 -5 13 -25 29 -45 16
-20 31 -48 33 -62 2 -17 8 -24 20 -22 17 3 17 -13 12 -230 -3 -128 -7 -238 -9
-245 -8 -26 -747 186 -788 226 -5 5 -1 125 8 267 15 244 27 366 55 546 14 85
13 85 63 5z m5717 39 c0 2 10 -1 22 -7 13 -7 59 -12 103 -12 l80 0 -90 -11
c-56 -8 -95 -9 -103 -3 -7 5 -27 17 -44 26 -18 9 -34 22 -36 29 -2 8 9 6 32
-7 20 -12 36 -18 36 -15z m243 -13 c-7 -2 -19 -2 -25 0 -7 3 -2 5 12 5 14 0
19 -2 13 -5z m-957 -40 c-3 -7 -2 -12 2 -10 8 2 12 -7 12 -28 0 -25 -66 -20
-73 5 -3 11 -2 18 3 15 4 -3 10 4 13 15 3 12 13 18 26 17 13 -1 20 -6 17 -14z
m1102 -59 c24 -27 38 -35 53 -31 32 9 42 -9 65 -118 21 -99 52 -201 79 -260 8
-16 21 -55 30 -87 21 -76 38 -89 69 -55 14 15 27 36 31 47 3 11 13 20 22 20
10 0 13 6 9 16 -3 9 -2 12 4 9 6 -4 23 22 39 57 16 35 42 80 59 101 25 32 31
35 36 20 15 -50 46 -519 46 -703 l0 -107 -37 -6 c-21 -3 -96 -14 -168 -26
-225 -35 -534 -75 -715 -91 -69 -6 -134 -13 -146 -16 -21 -5 -21 -3 -27 308
-4 172 -10 361 -13 421 -7 101 -6 107 12 108 17 1 17 2 2 6 -13 3 -18 15 -18
44 0 21 5 39 10 39 19 0 118 79 147 117 23 30 28 47 29 100 1 36 7 70 13 76 7
7 69 19 139 28 194 25 193 25 230 -17z m-4108 16 c36 -5 99 -12 140 -15 41 -3
84 -8 96 -10 21 -5 460 -39 647 -51 l108 -6 -6 -77 c-10 -133 -25 -668 -25
-905 l0 -228 -157 7 c-87 4 -212 13 -278 19 l-120 11 -11 35 c-7 22 -19 36
-32 38 -11 2 -48 28 -83 58 -49 42 -69 54 -86 49 -13 -3 -38 1 -57 9 -20 8
-39 10 -47 5 -22 -14 -29 -11 -29 14 0 17 -14 29 -55 49 l-54 28 -20 -21 -20
-22 2 29 c2 23 -2 30 -21 32 -22 3 -53 42 -32 42 15 0 12 37 -3 43 -7 3 -22
33 -32 67 -18 61 -18 69 -1 299 17 233 33 415 42 479 4 28 8 32 37 32 18 0 61
-5 97 -10z m3096 -125 c7 -19 25 -50 39 -71 16 -24 25 -51 25 -78 0 -23 4 -58
9 -78 5 -21 7 -38 5 -38 -2 0 -33 29 -68 64 -43 43 -66 76 -71 98 -4 18 -13
42 -20 53 -7 11 -16 35 -19 53 -4 17 -13 33 -19 33 -7 1 6 5 28 8 51 9 73 -2
91 -44z m1811 39 c11 -3 24 -13 27 -22 4 -10 14 -30 22 -46 13 -23 14 -36 6
-62 -9 -29 -7 -34 9 -39 11 -4 31 2 48 15 17 11 32 16 36 11 12 -20 46 -167
47 -206 1 -22 -2 -63 -6 -91 -6 -41 -4 -53 9 -64 25 -21 52 -80 59 -132 4 -26
11 -50 17 -53 5 -4 9 -14 9 -24 0 -19 59 -71 79 -71 14 0 14 16 1 40 -5 10
-11 42 -14 70 -3 47 -8 56 -50 94 -25 24 -46 47 -46 51 0 5 -10 29 -22 53 -19
41 -20 49 -8 91 7 25 16 62 20 81 4 19 8 27 9 17 0 -10 4 -16 9 -14 9 6 33
-19 26 -26 -3 -3 7 -14 23 -24 35 -22 57 -43 46 -43 -4 0 3 -6 17 -13 15 -8
24 -20 22 -31 -2 -10 -1 -25 3 -34 5 -13 9 -12 26 6 11 12 30 22 43 22 36 0
69 32 73 71 10 89 3 152 -20 194 -23 40 -23 43 -7 76 9 19 22 33 29 31 17 -4
51 27 51 46 0 9 3 12 6 9 4 -3 15 -2 25 3 11 7 20 7 24 0 10 -17 33 -228 46
-425 l13 -190 -29 -43 c-15 -23 -38 -45 -51 -48 -17 -4 -24 -13 -24 -31 0 -22
-3 -25 -31 -21 -35 5 -53 -17 -44 -55 6 -22 2 -25 -82 -44 l-88 -20 -3 31 c-2
16 -12 37 -23 47 -10 9 -16 19 -12 23 3 3 1 6 -6 6 -15 0 -31 13 -97 78 -30
28 -54 57 -54 62 0 6 -13 10 -28 10 -15 0 -33 5 -40 12 -9 9 -12 9 -12 -1 0
-12 50 -83 98 -138 12 -14 22 -33 22 -42 0 -9 12 -33 26 -54 14 -21 23 -44 21
-51 -6 -16 -430 -107 -441 -95 -2 2 -6 94 -9 204 -3 110 -13 308 -23 441 l-17
241 43 39 c49 45 62 53 110 71 40 14 56 15 87 7z m-3852 -130 c-11 -51 -13
-54 -14 -23 -1 20 2 58 6 85 6 43 7 46 14 23 3 -15 1 -53 -6 -85z m-8 -146
c-3 -8 -6 -5 -6 6 -1 11 2 17 5 13 3 -3 4 -12 1 -19z m-3832 -124 c21 -13 22
-25 29 -175 12 -291 44 -551 97 -803 16 -77 27 -141 25 -143 -2 -2 -24 19 -50
47 -55 62 -102 153 -122 239 -23 101 -64 328 -76 421 -5 47 -12 96 -14 110 -6
40 -24 330 -24 385 l0 49 57 -58 c31 -32 66 -64 78 -72z m6274 -274 c6 -157
11 -331 11 -387 0 -98 -1 -103 -22 -107 -24 -5 -118 -12 -306 -23 l-113 -6 19
51 c30 77 63 128 139 215 170 195 211 264 199 332 -5 22 -11 33 -18 29 -6 -4
-9 -3 -6 2 30 52 72 197 62 215 -2 3 -28 -2 -59 -13 -31 -10 -60 -16 -64 -13
-5 2 -14 -1 -20 -9 -7 -8 -21 -12 -31 -9 -11 3 -27 0 -36 -8 -8 -7 -14 -8 -13
-3 4 22 -2 34 -23 46 -33 19 -31 43 3 43 15 0 34 -6 41 -12 20 -21 105 -15
159 9 27 13 50 27 50 33 5 42 19 -148 28 -385z m-2435 335 c3 -8 12 -15 21
-15 8 0 15 -6 15 -12 0 -7 16 -30 35 -52 19 -21 35 -49 35 -62 0 -16 16 -39
47 -66 25 -24 58 -54 72 -68 42 -41 83 -70 92 -64 5 3 9 1 9 -4 0 -15 74 -32
138 -32 33 0 104 9 158 21 63 13 115 18 142 14 47 -7 114 -32 123 -47 3 -5 15
-10 26 -11 12 0 19 -6 17 -12 -2 -5 -5 -35 -8 -66 -3 -30 -8 -67 -11 -81 -8
-30 3 -54 55 -120 23 -29 48 -78 64 -128 14 -45 26 -84 26 -87 0 -7 -746 4
-952 14 l-138 6 0 196 c0 287 12 691 21 691 4 0 9 -7 13 -15z m5672 -122 c-12
-247 -50 -524 -106 -773 -47 -212 -45 -206 -119 -279 -54 -52 -226 -181 -243
-181 -2 0 11 71 28 158 56 278 92 591 97 841 l2 124 98 61 c53 33 130 88 170
123 39 34 74 62 76 62 2 1 1 -61 -3 -136z m-7600 10 c-7 -17 -8 -17 -17 0 -12
21 -2 44 13 29 6 -6 8 -19 4 -29z m-1531 -178 c61 -28 136 -62 168 -74 l57
-23 0 -147 c0 -245 42 -613 104 -906 8 -38 13 -71 11 -73 -1 -2 -49 17 -105
42 -117 52 -265 132 -331 180 l-45 34 -33 143 c-63 278 -101 558 -117 861 l-6
128 93 -57 c52 -31 144 -80 204 -108z m1286 145 c26 -52 45 -122 44 -165 -1
-56 -12 -95 -26 -95 -5 0 -15 -16 -23 -35 -8 -19 -20 -35 -25 -35 -6 0 -11 -6
-11 -14 0 -7 -7 -27 -15 -42 -8 -16 -15 -39 -15 -52 0 -17 -5 -22 -17 -19 -10
3 -30 8 -45 11 -23 5 -27 10 -23 34 2 15 7 110 10 212 3 101 7 186 9 188 8 7
56 -22 56 -35 0 -7 5 -13 11 -13 7 0 9 9 6 21 -11 40 45 75 64 39z m7437 -277
c-6 -142 -21 -318 -34 -413 -22 -162 -51 -322 -86 -473 l-20 -88 -46 -23 c-26
-13 -63 -30 -83 -39 l-36 -15 18 38 c43 88 71 194 66 242 -4 26 -1 62 5 80 8
24 8 33 0 36 -8 2 -10 26 -5 79 5 57 3 74 -5 69 -7 -4 -12 -14 -12 -22 0 -8
-4 -14 -8 -14 -5 0 -6 14 -4 31 6 39 -15 55 -40 32 -9 -8 -24 -13 -33 -10 -8
4 -15 2 -15 -4 0 -6 -10 -19 -23 -29 -13 -10 -29 -37 -37 -60 -16 -49 -27 -58
-44 -34 -12 16 -16 14 -45 -26 -17 -24 -31 -49 -31 -57 0 -7 -4 -13 -10 -13
-5 0 -9 -5 -7 -12 1 -7 -5 -12 -13 -13 -8 0 -17 -11 -18 -24 -5 -36 -49 -101
-75 -110 -13 -5 -29 -16 -36 -25 -25 -30 -27 -16 -15 77 13 89 37 349 50 530
3 48 10 85 14 82 15 -9 23 65 11 92 -7 14 -10 27 -9 28 10 8 135 45 152 45 11
0 27 6 35 13 9 7 68 33 131 57 63 24 148 58 187 76 l73 33 -5 -72 c-3 -40 -8
-83 -11 -97 -4 -18 -2 -22 6 -14 13 13 39 117 40 160 0 29 6 44 19 44 3 0 3
-71 -1 -157z m-8289 -38 c130 -44 358 -109 546 -157 l90 -23 2 -120 c5 -279
47 -718 92 -958 l9 -48 -42 7 c-153 25 -701 196 -715 223 -9 16 -60 276 -80
406 -19 122 -39 325 -46 460 -3 72 -8 158 -11 193 -5 49 -3 62 7 62 8 0 75
-20 148 -45z m7441 -140 c0 -18 5 -25 19 -25 11 0 23 -5 27 -11 3 -6 15 -8 26
-6 26 7 48 -2 48 -20 0 -8 5 -11 12 -7 8 5 9 -14 4 -77 -4 -46 -8 -84 -9 -85
-7 -7 -57 10 -57 20 0 15 -64 40 -68 26 -5 -15 -53 -12 -72 5 -26 23 -67 28
-74 9 -3 -8 0 -21 7 -28 18 -18 72 -38 93 -35 11 1 35 -2 54 -8 19 -5 54 -9
78 -7 l42 2 0 -38 c0 -49 -26 -300 -44 -418 -9 -59 -21 -101 -32 -113 -12 -13
-17 -37 -18 -82 -1 -34 -4 -66 -8 -72 -3 -5 -4 -23 -3 -39 5 -46 -3 -55 -74
-75 -180 -54 -779 -187 -790 -175 -2 2 1 39 7 82 34 216 60 535 69 825 3 119
7 217 7 217 1 0 108 22 238 48 l238 47 42 -52 c33 -40 50 -52 72 -53 l28 0 -4
71 c-2 39 -2 66 0 60 5 -16 22 -14 22 3 0 7 18 18 43 23 69 17 77 16 77 -12z
m-6693 -61 c27 -5 29 -9 29 -55 0 -38 6 -55 25 -76 24 -27 59 -94 59 -113 0
-5 18 -47 40 -94 22 -46 40 -92 40 -102 1 -26 35 -63 100 -111 108 -79 105
-72 107 -251 0 -86 -3 -182 -8 -212 -5 -30 -11 -79 -14 -109 -2 -29 -6 -56 -9
-59 -5 -5 -116 15 -247 44 l-66 15 -21 127 c-11 70 -25 161 -31 202 -37 273
-67 800 -45 800 6 0 25 -3 41 -6z m5873 -182 c0 -217 -32 -645 -66 -877 -24
-164 -18 -152 -77 -164 -124 -23 -468 -72 -657 -92 -265 -29 -335 -36 -339
-33 -1 1 2 49 8 106 17 151 31 425 38 740 l6 278 31 4 c17 3 85 10 151 16 239
23 701 84 825 109 85 17 80 23 80 -87z m-1154 -294 c-10 -390 -38 -863 -51
-876 -13 -13 -575 -47 -942 -57 l-213 -6 0 41 c0 42 9 50 29 26 8 -10 23 -13
46 -9 25 4 41 0 61 -16 20 -16 41 -21 86 -21 80 0 165 44 221 114 61 78 154
274 178 374 25 106 35 125 100 199 85 97 87 104 74 295 -5 64 -12 102 -21 109
-26 22 -15 36 34 42 26 4 119 12 207 18 88 6 162 12 164 15 2 2 11 4 19 4 13
0 14 -32 8 -252z m-2726 219 l185 -12 2 -170 c3 -255 23 -864 30 -914 l6 -44
-129 7 c-279 15 -906 75 -971 92 -16 4 -23 14 -23 31 0 13 4 22 8 19 5 -3 31
41 58 96 59 122 79 147 158 200 127 85 154 128 186 299 17 90 32 135 71 214
45 92 63 165 40 165 -5 0 -7 9 -4 20 5 20 11 20 102 14 53 -3 179 -11 281 -17z
m915 -33 c461 -7 445 -5 445 -67 0 -17 -11 -44 -24 -61 -39 -51 -59 -200 -33
-250 59 -117 80 -173 84 -230 6 -82 20 -134 49 -178 23 -36 24 -45 24 -193 l0
-155 -253 0 c-233 0 -918 18 -925 24 -7 8 -23 398 -29 740 l-6 389 124 -6 c68
-4 313 -10 544 -13z m-4255 -449 c72 -237 187 -531 279 -713 l39 -77 -28 -1
c-25 -1 -33 9 -98 135 -148 284 -255 546 -349 855 -3 12 20 -3 60 -40 65 -58
67 -61 97 -159z m9053 23 c-127 -368 -347 -805 -458 -913 -51 -50 -181 -146
-174 -129 2 5 36 74 75 154 106 213 205 477 284 748 18 61 27 77 52 90 63 35
205 132 228 157 13 14 27 25 31 25 5 0 -12 -60 -38 -132z m-8808 -90 c55 -28
141 -68 190 -89 l90 -38 41 -143 c74 -265 187 -564 286 -761 21 -44 38 -80 36
-82 -7 -7 -237 108 -314 157 -90 57 -97 65 -207 278 -80 154 -154 324 -217
496 -45 121 -90 262 -90 278 0 4 19 -5 43 -19 23 -14 87 -49 142 -77z m8450
-120 c-64 -219 -163 -465 -280 -698 -111 -221 -96 -204 -210 -254 -148 -66
-388 -156 -416 -156 -4 0 19 60 50 133 74 169 147 373 202 560 36 124 48 153
76 182 39 40 72 52 102 36 15 -9 29 -8 53 2 33 14 223 168 230 186 3 10 210
111 216 105 2 -1 -8 -45 -23 -96z m-8037 -54 c61 -25 352 -111 525 -155 89
-22 163 -42 165 -44 2 -2 15 -54 28 -117 48 -228 137 -524 228 -757 20 -52 35
-96 33 -98 -11 -11 -511 134 -610 176 -48 21 -49 22 -122 173 -114 236 -205
477 -276 727 -16 58 -29 106 -29 108 0 7 23 2 58 -13z m7362 -201 c-58 -233
-159 -521 -265 -755 l-57 -128 -67 -20 c-105 -31 -425 -107 -551 -130 -63 -12
-122 -23 -132 -26 -13 -4 -6 27 37 158 69 209 117 393 164 626 l38 186 234 48
c129 26 320 69 424 95 105 27 191 45 193 41 2 -4 -6 -47 -18 -95z m-6441 -43
c80 -17 147 -32 149 -35 5 -5 -38 -136 -50 -151 -5 -7 -4 -23 2 -38 6 -16 7
-52 3 -83 -5 -49 -4 -56 10 -50 24 9 29 -6 21 -73 -6 -59 -18 -77 -27 -42 -3
11 -5 8 -6 -9 0 -14 -7 -31 -13 -38 -11 -10 -10 -14 5 -22 18 -11 24 -39 7
-39 -18 0 -11 -55 10 -73 12 -10 17 -23 13 -33 -4 -12 -3 -15 5 -10 7 4 14 -3
18 -18 3 -13 14 -32 25 -42 10 -9 16 -20 14 -24 -4 -7 53 -50 104 -77 19 -11
111 -16 111 -7 0 1 -16 12 -34 24 -46 28 -51 47 -26 102 11 25 22 59 24 74 4
34 8 46 51 139 25 56 45 82 90 120 33 28 110 101 172 164 62 63 116 112 119
108 3 -3 21 -94 39 -204 41 -240 84 -444 130 -621 19 -72 35 -134 35 -136 0
-6 -11 -4 -290 39 -290 45 -561 101 -572 117 -16 26 -92 226 -145 383 -47 140
-153 536 -153 572 0 17 -7 18 159 -17z m5541 -65 c0 -2 -14 -71 -31 -152 -73
-357 -202 -793 -240 -813 -27 -15 -618 -96 -846 -116 -40 -3 -73 -2 -73 3 0 4
11 62 24 128 45 219 116 708 116 795 0 33 -25 28 280 60 107 11 229 25 270 31
41 5 89 12 105 14 55 7 250 37 295 45 53 9 100 12 100 5z m-4330 -110 c266
-27 637 -55 718 -55 l50 0 6 -62 c3 -35 10 -130 16 -213 16 -230 52 -578 67
-659 l5 -29 -132 7 c-216 11 -600 45 -777 67 l-91 12 -26 91 c-71 255 -132
551 -171 835 l-6 44 48 -7 c26 -4 158 -18 293 -31z m3215 -92 c-19 -212 -123
-848 -144 -882 -10 -16 -683 -61 -925 -61 l-108 0 6 128 c3 70 8 224 11 342 3
118 8 276 11 351 l6 136 242 6 c291 8 872 43 905 56 2 0 0 -34 -4 -76z m-1668
10 l461 -6 -4 -226 c-3 -124 -9 -304 -14 -399 -6 -95 -10 -206 -10 -246 0 -58
-3 -75 -16 -80 -31 -12 -1029 5 -1042 18 -9 9 -41 324 -67 651 -8 105 -17 217
-20 249 l-5 59 127 -6 c71 -4 336 -10 590 -14z m-3875 -303 c148 -245 356
-513 568 -734 146 -152 412 -380 433 -373 8 2 27 28 33 45 0 1 23 -7 50 -19
27 -12 79 -50 116 -85 100 -94 233 -203 344 -281 231 -164 552 -334 639 -338
76 -5 220 -48 315 -95 105 -52 226 -98 340 -129 64 -18 76 -19 89 -7 7 8 11
20 9 28 -3 7 -61 30 -128 51 -125 39 -153 57 -58 38 29 -6 82 -13 118 -17 54
-6 78 -15 145 -57 175 -110 400 -173 400 -113 0 16 -17 25 -96 47 -91 26 -204
73 -214 88 -2 4 27 4 65 0 37 -4 108 -10 157 -13 229 -16 210 -10 278 -84 81
-88 172 -127 205 -87 16 19 -3 45 -34 45 -33 0 -136 75 -136 99 0 3 119 5 266
3 l265 -3 -7 -22 c-3 -12 -18 -43 -31 -69 -28 -51 -24 -68 13 -68 21 0 30 11
54 63 17 34 30 70 30 80 0 15 11 17 86 17 47 0 150 5 228 11 78 6 153 9 167 7
21 -3 18 -7 -31 -36 -30 -18 -88 -42 -127 -54 -63 -19 -73 -25 -73 -45 0 -20
5 -23 40 -23 74 0 174 48 317 154 26 19 51 25 125 31 51 4 130 13 176 20 46 6
79 8 74 3 -13 -13 -190 -74 -254 -87 -66 -14 -89 -34 -67 -57 31 -30 242 31
427 125 119 61 192 84 192 61 0 -6 -8 -9 -19 -5 -22 7 -46 -18 -37 -40 6 -17
41 -20 51 -5 3 6 17 10 30 10 33 0 151 43 272 100 55 26 143 62 195 79 143 49
183 71 183 102 0 22 18 40 100 101 127 95 166 127 299 251 l108 101 122 41
c66 23 130 46 140 50 92 39 -257 -218 -466 -344 -48 -28 -90 -57 -94 -62 -3
-6 1 -18 10 -27 16 -16 21 -15 79 17 194 107 433 278 607 434 52 47 122 102
156 121 33 19 80 53 105 75 37 33 42 42 33 58 -9 15 1 32 72 115 143 169 298
382 407 564 23 38 48 66 65 73 15 6 48 25 72 41 24 16 45 28 47 26 7 -6 -28
-64 -42 -70 -20 -7 -19 -33 1 -44 10 -5 14 -15 10 -21 -6 -9 -11 -9 -21 -1 -7
6 -20 8 -29 4 -19 -7 -22 -40 -3 -47 13 -4 -14 -48 -95 -152 -26 -33 -51 -65
-55 -70 -102 -131 -421 -465 -547 -570 -33 -28 -78 -66 -100 -85 -105 -91
-258 -207 -391 -297 -97 -65 -302 -193 -310 -193 -3 0 -24 -12 -46 -26 -70
-44 -328 -170 -449 -219 -63 -26 -128 -53 -145 -60 -28 -13 -168 -63 -280
-100 -53 -18 -217 -65 -375 -108 -360 -99 -918 -152 -1363 -129 -1418 73
-2690 718 -3572 1811 -104 130 -335 458 -335 476 0 14 83 -63 102 -95z m415
-201 c58 -22 65 -28 92 -79 39 -73 170 -277 234 -365 56 -76 200 -254 241
-297 14 -15 26 -30 26 -33 0 -8 -110 49 -178 92 -160 101 -556 556 -706 811
-4 7 45 -13 111 -46 65 -32 146 -70 180 -83z m7363 46 c0 -11 -144 -221 -219
-319 -101 -134 -230 -282 -337 -388 -78 -76 -101 -92 -184 -128 -115 -51 -251
-102 -257 -97 -2 3 26 40 62 83 128 154 259 350 371 553 l63 115 163 56 c90
31 199 72 243 92 84 38 95 41 95 33z m-6753 -241 l189 -48 66 -136 c85 -171
196 -358 297 -497 43 -59 75 -109 70 -111 -12 -5 -180 42 -340 94 l-137 44
-78 83 c-100 104 -244 280 -330 403 -70 101 -184 283 -184 295 0 4 58 -12 129
-36 71 -23 214 -65 318 -91z m6163 30 c0 -3 -28 -54 -61 -112 -120 -209 -288
-443 -422 -588 l-66 -71 -138 -36 c-115 -30 -286 -68 -416 -93 -27 -6 -27 -5
26 78 115 180 184 310 272 517 l62 143 239 49 c131 27 295 64 364 83 139 38
140 38 140 30z m-5677 -138 c163 -31 277 -49 546 -89 l83 -12 53 -150 c66
-190 111 -297 192 -458 l64 -129 -38 6 c-171 26 -371 60 -488 82 -138 26 -141
27 -179 68 -96 102 -263 356 -379 576 -66 125 -77 156 -53 147 10 -4 99 -22
199 -41z m4857 -39 c0 -11 -60 -149 -110 -253 -66 -136 -134 -255 -227 -395
l-63 -96 -133 -21 c-300 -48 -607 -81 -607 -66 0 5 14 42 30 83 42 102 120
351 161 508 l34 133 43 0 c24 0 98 7 165 15 67 8 163 20 212 26 87 10 316 42
420 59 64 10 75 11 75 7z m-3960 -92 c192 -20 476 -43 625 -50 170 -9 162 -5
170 -67 14 -109 67 -405 95 -531 17 -72 28 -133 25 -135 -9 -9 -717 52 -772
67 -47 13 -190 306 -294 603 l-48 137 27 -4 c15 -2 92 -11 172 -20z m2970 -43
c0 -56 -145 -520 -204 -655 -29 -65 -12 -60 -251 -78 -150 -11 -593 -28 -606
-22 -3 1 -2 33 2 70 10 94 30 378 38 525 l6 123 210 7 c227 7 757 38 764 44
13 12 41 2 41 -14z m-1487 -39 l407 -6 0 -59 c0 -33 -4 -112 -9 -176 -6 -64
-15 -191 -21 -282 -6 -91 -14 -173 -16 -182 -5 -16 -22 -18 -173 -18 -92 0
-283 3 -424 7 -216 5 -257 9 -262 21 -21 54 -135 650 -135 704 0 8 31 9 113 5
61 -4 295 -10 520 -14z m-2442 -487 c85 -24 181 -49 213 -56 59 -12 62 -15
206 -159 80 -80 192 -181 248 -224 57 -42 99 -77 93 -77 -5 0 -55 16 -111 35
-204 72 -513 267 -764 484 -26 23 -45 41 -43 41 3 0 74 -20 158 -44z m5078
-49 c-14 -12 -64 -56 -111 -97 -113 -100 -293 -228 -429 -305 -98 -56 -127
-67 -260 -100 -83 -20 -153 -35 -155 -33 -2 3 17 20 43 38 64 46 266 250 333
336 l55 71 120 22 c66 12 181 37 255 55 74 19 144 34 155 35 18 0 17 -2 -6
-22z m-4534 -77 c61 -12 198 -34 305 -50 107 -16 196 -33 198 -38 6 -19 125
-187 171 -242 25 -30 75 -86 111 -123 l65 -69 -35 6 c-19 3 -64 10 -100 16
-212 35 -273 51 -349 98 -119 71 -286 200 -403 312 -60 56 -108 105 -108 110
0 4 8 6 18 4 9 -2 67 -13 127 -24z m3883 -72 c-100 -128 -370 -368 -463 -412
-36 -17 -472 -82 -483 -72 -2 3 11 24 31 48 54 67 131 189 184 292 l48 95 60
6 c129 13 542 66 585 74 72 14 73 13 38 -31z m-3093 -38 c66 -6 165 -15 220
-20 55 -5 155 -13 222 -16 l121 -7 32 -101 c38 -124 65 -193 102 -268 15 -32
28 -59 28 -62 0 -2 -17 -2 -37 0 -21 2 -103 8 -183 14 -80 6 -184 16 -232 22
-86 11 -89 12 -157 70 -39 32 -102 95 -142 141 -70 81 -179 228 -179 242 0 4
19 5 43 2 23 -4 96 -11 162 -17z m2295 -97 c-55 -102 -158 -256 -212 -315
l-43 -47 -160 -10 c-88 -6 -218 -13 -289 -17 l-129 -7 6 29 c6 26 39 257 52
360 l6 41 252 12 c139 7 299 16 357 20 58 5 127 9 153 10 l49 1 -42 -77z
m-1132 38 l302 -1 -4 -22 c-3 -13 -7 -48 -10 -78 -4 -30 -16 -117 -27 -192
l-21 -138 -213 0 c-116 0 -253 3 -303 6 l-90 7 -46 97 c-44 93 -116 293 -116
321 0 11 21 13 112 7 62 -3 249 -7 416 -7z"/>
<path d="M6805 9190 c-3 -6 -17 -7 -31 -4 -14 4 -24 2 -24 -5 0 -7 23 -11 58
-12 43 -1 51 -3 32 -9 -19 -6 -12 -9 35 -11 33 -1 77 -1 98 0 40 3 94 26 80
34 -13 8 -138 11 -150 4 -6 -4 -17 -5 -25 -3 -40 13 -67 15 -73 6z"/>
<path d="M2880 8961 c0 -16 26 -19 45 -5 17 13 17 14 -13 14 -18 0 -32 -4 -32
-9z"/>
<path d="M3048 8963 c7 -3 16 -2 19 1 4 3 -2 6 -13 5 -11 0 -14 -3 -6 -6z"/>
<path d="M2803 8942 c-18 -2 -33 -7 -33 -12 0 -11 69 -10 76 1 7 11 -7 15 -43
11z"/>
<path d="M2820 8872 c-19 -9 -37 -19 -40 -23 -3 -4 -14 -9 -25 -13 -11 -3 -3
-4 18 -1 26 3 35 0 31 -7 -5 -8 -1 -9 10 -5 10 4 22 7 26 7 14 0 33 41 23 51
-4 4 -24 1 -43 -9z"/>
<path d="M2913 8863 c-24 -9 -13 -23 17 -23 20 0 30 5 30 15 0 15 -22 19 -47
8z"/>
<path d="M2615 8810 c-3 -6 1 -7 9 -4 18 7 21 14 7 14 -6 0 -13 -4 -16 -10z"/>
<path d="M2685 8800 c-4 -6 -13 -9 -21 -6 -9 4 -18 -3 -24 -18 -8 -21 -29 -31
-87 -38 -18 -2 -69 -45 -62 -53 4 -3 17 4 29 17 17 17 21 19 17 6 -7 -21 3
-23 22 -5 11 10 12 9 6 -1 -4 -8 13 1 37 20 25 18 58 43 74 54 16 12 26 25 23
29 -4 3 -10 1 -14 -5z"/>
<path d="M2805 8781 c-11 -4 -20 -16 -20 -27 0 -11 -10 -21 -25 -25 -16 -5
-19 -7 -7 -8 9 -1 25 -6 35 -12 25 -15 82 13 82 41 0 14 -5 18 -17 13 -16 -6
-16 -5 -4 10 12 15 11 17 -5 16 -11 0 -28 -4 -39 -8z"/>
<path d="M2455 8640 c-10 -11 -16 -22 -13 -25 3 -3 13 4 23 15 10 11 16 22 13
25 -3 3 -13 -4 -23 -15z"/>
<path d="M9309 9130 l-24 -19 41 -1 c32 0 43 -4 47 -19 3 -13 17 -20 43 -24
22 -4 56 -9 77 -13 33 -6 37 -4 37 15 0 20 -10 26 -39 21 -7 -1 -26 12 -42 29
-23 26 -35 31 -72 31 -30 0 -53 -7 -68 -20z"/>
<path d="M9554 9035 c-18 -14 -18 -14 6 -15 14 0 50 -2 80 -5 l55 -5 -40 20
c-48 23 -75 25 -101 5z"/>
<path d="M9890 8820 c8 -5 20 -10 25 -10 6 0 3 5 -5 10 -8 5 -19 10 -25 10 -5
0 -3 -5 5 -10z"/>
<path d="M7820 8710 c0 -5 14 -10 31 -10 17 0 28 4 24 10 -3 6 -17 10 -31 10
-13 0 -24 -4 -24 -10z"/>
<path d="M5440 8970 c0 -5 9 -10 21 -10 11 0 17 5 14 10 -3 6 -13 10 -21 10
-8 0 -14 -4 -14 -10z"/>
<path d="M5812 8105 c-4 -5 -7 -14 -7 -20 0 -5 -10 -11 -22 -13 -21 -3 -42
-32 -23 -32 15 0 12 -36 -5 -50 -36 -30 24 -41 75 -15 17 9 30 13 30 9 0 -4 7
-1 16 6 9 8 14 25 12 42 -2 16 3 32 11 37 10 6 10 13 2 29 -8 14 -20 19 -46
19 -20 -1 -39 -6 -43 -12z"/>
<path d="M3820 8369 c0 -5 5 -7 10 -4 6 3 10 8 10 11 0 2 -4 4 -10 4 -5 0 -10
-5 -10 -11z"/>
<path d="M3377 8683 c-4 -3 -7 -11 -7 -17 0 -6 5 -5 12 2 6 6 9 14 7 17 -3 3
-9 2 -12 -2z"/>
<path d="M3483 8653 c3 -5 -6 -9 -20 -10 -26 -1 -46 -20 -37 -35 8 -12 48 -10
62 4 15 15 16 48 1 48 -5 0 -8 -3 -6 -7z"/>
<path d="M3360 8640 c0 -5 5 -10 10 -10 6 0 10 5 10 10 0 6 -4 10 -10 10 -5 0
-10 -4 -10 -10z"/>
<path d="M3510 8630 c0 -5 9 -10 20 -10 11 0 20 5 20 10 0 6 -9 10 -20 10 -11
0 -20 -4 -20 -10z"/>
<path d="M3231 8411 c-27 -7 -41 -31 -19 -31 17 0 55 26 48 33 -3 2 -16 1 -29
-2z"/>
<path d="M3320 8374 c0 -8 5 -12 10 -9 6 3 10 10 10 16 0 5 -4 9 -10 9 -5 0
-10 -7 -10 -16z"/>
<path d="M3250 8000 c0 -5 7 -10 15 -10 8 0 15 5 15 10 0 6 -7 10 -15 10 -8 0
-15 -4 -15 -10z"/>
<path d="M4210 7774 c-9 -10 -10 -18 -2 -26 12 -12 32 -2 32 17 0 21 -16 26
-30 9z"/>
<path d="M6414 7502 c-11 -8 -13 -82 -1 -82 4 0 13 0 21 0 14 0 27 55 19 78
-6 13 -22 16 -39 4z"/>
<path d="M6970 7250 c14 -4 36 -8 50 -8 l25 0 -25 8 c-14 4 -36 8 -50 8 l-25
0 25 -8z"/>
<path d="M10493 7148 c-8 -9 -9 -19 -3 -28 6 -8 10 -25 10 -37 0 -13 5 -23 10
-23 6 0 10 9 10 19 0 11 2 25 5 33 3 7 -1 22 -8 32 -11 15 -15 16 -24 4z"/>
<path d="M10647 7124 c-7 -8 3 -66 13 -78 5 -4 7 10 6 33 -2 41 -8 56 -19 45z"/>
<path d="M10266 6518 c-11 -35 -16 -148 -6 -148 5 0 10 -9 10 -20 0 -11 5 -20
10 -20 6 0 9 20 8 45 0 24 4 51 11 59 21 25 3 96 -24 96 -3 0 -7 -6 -9 -12z"/>
<path d="M10745 6370 c-3 -5 -1 -10 4 -10 6 0 11 5 11 10 0 6 -2 10 -4 10 -3
0 -8 -4 -11 -10z"/>
<path d="M10305 6340 c-3 -5 -1 -10 6 -10 6 0 18 -8 26 -17 13 -16 13 -16 3 4
-13 27 -27 36 -35 23z"/>
<path d="M10272 6290 c0 -14 2 -19 5 -12 2 6 2 18 0 25 -3 6 -5 1 -5 -13z"/>
<path d="M10366 6273 c-3 -3 -1 -12 5 -19 7 -8 7 -14 -1 -19 -5 -3 -10 -11
-10 -17 0 -7 6 -6 15 2 8 7 15 21 15 31 0 19 -13 32 -24 22z"/>
<path d="M10300 6219 c0 -11 4 -18 9 -15 5 4 11 0 14 -6 2 -7 4 -1 3 14 -1 32
-26 39 -26 7z"/>
<path d="M10314 6169 c-3 -6 -1 -16 5 -22 8 -8 11 -5 11 11 0 24 -5 28 -16 11z"/>
<path d="M10345 6170 c-3 -5 -1 -10 4 -10 6 0 11 5 11 10 0 6 -2 10 -4 10 -3
0 -8 -4 -11 -10z"/>
<path d="M10700 6130 c0 -23 5 -40 11 -40 6 0 9 6 6 14 -3 7 -1 18 4 23 5 5 7
17 3 26 -11 30 -24 18 -24 -23z"/>
<path d="M10384 6153 c9 -16 -29 -57 -43 -48 -6 3 -18 0 -26 -9 -21 -20 -19
-29 4 -17 24 13 31 5 31 -35 0 -19 6 -34 15 -38 11 -4 15 2 15 24 0 20 5 30
15 30 12 0 14 8 9 43 -4 23 -11 47 -17 52 -7 7 -8 6 -3 -2z"/>
<path d="M3170 6700 c-8 -5 -11 -12 -7 -16 4 -4 15 0 24 9 18 18 8 23 -17 7z"/>
<path d="M3549 6556 c5 -12 6 -26 4 -32 -5 -15 39 -26 51 -14 6 6 27 10 48 10
21 0 38 5 38 10 0 6 -5 10 -12 10 -6 0 -20 8 -30 17 -11 10 -37 18 -63 18 -40
2 -43 0 -36 -19z"/>
<path d="M3500 6520 c0 -5 5 -10 11 -10 5 0 7 5 4 10 -3 6 -8 10 -11 10 -2 0
-4 -4 -4 -10z"/>
<path d="M3375 6510 c3 -5 13 -10 21 -10 8 0 12 5 9 10 -3 6 -13 10 -21 10 -8
0 -12 -4 -9 -10z"/>
<path d="M3740 6510 c0 -5 9 -10 20 -10 11 0 20 5 20 10 0 6 -9 10 -20 10 -11
0 -20 -4 -20 -10z"/>
<path d="M8932 6082 c-4 -84 11 -111 46 -87 12 9 22 25 22 36 0 23 -47 119
-58 119 -4 0 -8 -30 -10 -68z"/>
<path d="M10690 5783 c0 -17 -3 -39 -7 -49 -4 -11 -3 -15 5 -11 16 11 26 67
13 80 -8 8 -11 3 -11 -20z"/>
<path d="M10583 5775 c-15 -16 -18 -55 -5 -55 13 0 34 52 25 61 -4 4 -14 1
-20 -6z"/>
<path d="M10494 5752 c-14 -23 -6 -52 14 -52 12 0 13 -3 4 -12 -7 -7 -12 -21
-12 -32 0 -10 3 -16 7 -13 3 4 12 2 19 -3 9 -8 18 -3 33 16 22 28 28 54 12 54
-5 0 -12 -12 -15 -26 -10 -39 -30 -14 -28 35 2 42 -17 61 -34 33z"/>
<path d="M10211 5711 c-6 -11 -11 -27 -11 -35 0 -9 -6 -26 -12 -37 -10 -17
-10 -23 0 -26 7 -3 12 -23 12 -49 0 -43 19 -64 21 -24 1 11 3 25 4 30 1 6 3
24 4 40 0 17 6 30 12 30 5 0 7 -5 4 -10 -4 -6 -1 -17 5 -25 6 -8 9 -19 5 -26
-5 -8 -1 -9 16 -4 21 7 22 6 11 -8 -8 -9 -9 -18 -4 -21 6 -3 12 3 15 14 3 11
1 23 -4 26 -5 3 -9 18 -9 33 0 15 -5 32 -12 39 -9 9 -5 19 17 42 31 33 24 40
-14 13 -22 -15 -25 -15 -37 1 -12 17 -13 16 -23 -3z"/>
<path d="M10610 5699 c0 -5 5 -7 10 -4 6 3 10 8 10 11 0 2 -4 4 -10 4 -5 0
-10 -5 -10 -11z"/>
<path d="M10716 5653 c-6 -14 -5 -15 5 -6 7 7 10 15 7 18 -3 3 -9 -2 -12 -12z"/>
<path d="M10425 5651 c-3 -6 4 -9 15 -8 11 1 20 5 20 9 0 11 -28 10 -35 -1z"/>
<path d="M10370 5630 c0 -5 5 -10 10 -10 6 0 10 5 10 10 0 6 -4 10 -10 10 -5
0 -10 -4 -10 -10z"/>
<path d="M10319 5401 c-16 -16 -29 -35 -29 -42 0 -8 3 -9 8 -3 4 5 20 24 36
42 37 40 25 42 -15 3z"/>
<path d="M10155 5400 c3 -5 8 -10 11 -10 2 0 4 5 4 10 0 6 -5 10 -11 10 -5 0
-7 -4 -4 -10z"/>
<path d="M10208 5403 c6 -2 18 -2 25 0 6 3 1 5 -13 5 -14 0 -19 -2 -12 -5z"/>
<path d="M10180 5361 c0 -5 7 -12 16 -15 24 -9 28 -7 14 9 -14 17 -30 20 -30
6z"/>
<path d="M10415 5330 c-3 -5 -1 -10 4 -10 6 0 11 5 11 10 0 6 -2 10 -4 10 -3
0 -8 -4 -11 -10z"/>
<path d="M7845 5174 c-4 -10 -11 -26 -16 -34 -5 -8 -15 -26 -21 -40 -16 -32
-34 -47 -81 -67 -48 -20 -60 -48 -51 -122 4 -44 1 -67 -14 -107 -12 -29 -19
-54 -16 -57 2 -2 6 -18 9 -35 6 -49 15 -71 33 -81 25 -14 71 -1 87 23 21 31
78 250 91 344 3 28 10 49 15 46 13 -8 11 57 -2 97 -16 46 -27 57 -34 33z"/>
<path d="M3577 3983 c-11 -10 -8 -43 3 -43 6 0 10 11 10 25 0 26 -2 29 -13 18z"/>
</g>
</svg>
